<?xml version="1.0" encoding="UTF-8"?>
<!-- Generated by Pixelmator Pro 3.6.14 -->
<svg width="25" height="25" viewBox="0 0 25 25" xmlns="http://www.w3.org/2000/svg">
    <g id="Group">
        <path id="Path" fill="#fff" stroke="none" d="M 21.469999 22.75 L 3.53 22.75 C 3.119814 22.747372 2.727627 22.581207 2.440405 22.288353 C 2.153183 21.995499 1.994664 21.600161 2 21.190001 L 2 3.450001 C 2 2.605003 2.685004 1.92 3.53 1.92 L 21.469999 1.92 C 22.314995 1.92 23 2.605003 23 3.450001 L 23 21.190001 C 23.005335 21.600161 22.846817 21.995499 22.559595 22.288353 C 22.272373 22.581207 21.880186 22.747372 21.469999 22.75 Z M 3.53 2.92 C 3.237289 2.92 3 3.15729 3 3.450001 L 3 21.190001 C 3 21.482712 3.237289 21.719999 3.53 21.719999 L 21.469999 21.719999 C 21.762711 21.719999 22 21.482712 22 21.190001 L 22 3.450001 C 22 3.15729 21.762711 2.92 21.469999 2.92 Z M 15.31 14.290001 C 14.20543 14.290001 13.31 13.394569 13.31 12.290001 C 13.31 11.185431 14.20543 10.290001 15.31 10.290001 C 16.41457 10.290001 17.309999 11.185431 17.309999 12.290001 C 17.309999 13.394569 16.41457 14.290001 15.31 14.290001 Z M 15.31 11.35 C 14.757715 11.35 14.31 11.797714 14.31 12.35 C 14.31 12.902285 14.757715 13.35 15.31 13.35 C 15.862285 13.35 16.309999 12.902285 16.309999 12.35 C 16.309999 11.797714 15.862285 11.35 15.31 11.35 Z M 9.67 14.290001 C 8.565431 14.290001 7.67 13.394569 7.67 12.290001 C 7.67 11.185431 8.565431 10.290001 9.67 10.290001 C 10.77457 10.290001 11.67 11.185431 11.67 12.290001 C 11.67 13.394569 10.77457 14.290001 9.67 14.290001 Z M 9.67 11.35 C 9.117715 11.35 8.67 11.797714 8.67 12.35 C 8.67 12.902285 9.117715 13.35 9.67 13.35 C 10.222284 13.35 10.67 12.902285 10.67 12.35 C 10.67 11.797714 10.222284 11.35 9.67 11.35 Z M 19 10.689999 C 17.89543 10.689999 17 9.794571 17 8.689999 C 17 7.58543 17.89543 6.690001 19 6.690001 C 20.10457 6.690001 21 7.58543 21 8.689999 C 21 9.794571 20.10457 10.689999 19 10.689999 Z M 19 7.75 C 18.447716 7.75 18 8.197716 18 8.75 C 18 9.302284 18.447716 9.75 19 9.75 C 19.552284 9.75 20 9.302284 20 8.75 C 20 8.197716 19.552284 7.75 19 7.75 Z M 6 10.689999 C 5.185694 10.689632 4.452913 10.195601 4.147199 9.440861 C 3.841484 8.686119 4.023882 7.821384 4.608384 7.254417 C 5.192887 6.68745 6.062775 6.531467 6.807857 6.860022 C 7.552938 7.188576 8.024429 7.93606 8 8.75 C 7.967554 9.83107 7.081556 10.690487 6 10.689999 Z M 6 7.75 C 5.447715 7.75 5 8.197716 5 8.75 C 5 9.302284 5.447715 9.75 6 9.75 C 6.552285 9.75 7 9.302284 7 8.75 C 7 8.197716 6.552285 7.75 6 7.75 Z"/>
        <path id="path1" fill="#fff" stroke="none" d="M 19 10.689999 C 17.89543 10.689999 17 9.794571 17 8.689999 C 17 7.58543 17.89543 6.690001 19 6.690001 C 20.10457 6.690001 21 7.58543 21 8.689999 C 21 9.794571 20.10457 10.689999 19 10.689999 Z M 19 7.75 C 18.447716 7.75 18 8.197716 18 8.75 C 18 9.302284 18.447716 9.75 19 9.75 C 19.552284 9.75 20 9.302284 20 8.75 C 20 8.197716 19.552284 7.75 19 7.75 Z"/>
        <path id="path2" fill="#fff" stroke="none" d="M 15.31 11 C 15.03 11 14.81 11.130001 14.81 10.85 L 14.81 5.75 C 14.81 5.197716 15.257715 4.75 15.81 4.75 L 22.5 4.75 C 22.780001 4.75 22.5 4.969999 22.5 5.25 C 22.5 5.530001 22.780001 5.75 22.5 5.75 L 15.82 5.75 L 15.82 10.85 C 15.81 11.130001 15.59 11 15.31 11 Z"/>
        <path id="path3" fill="#fff" stroke="none" d="M 15.31 14.290001 C 14.20543 14.290001 13.31 13.394569 13.31 12.290001 C 13.31 11.185431 14.20543 10.290001 15.31 10.290001 C 16.41457 10.290001 17.309999 11.185431 17.309999 12.290001 C 17.309999 13.394569 16.41457 14.290001 15.31 14.290001 Z M 15.31 11.35 C 14.757715 11.35 14.31 11.797714 14.31 12.35 C 14.31 12.902285 14.757715 13.35 15.31 13.35 C 15.862285 13.35 16.309999 12.902285 16.309999 12.35 C 16.309999 11.797714 15.862285 11.35 15.31 11.35 Z"/>
        <path id="path4" fill="#fff" stroke="none" d="M 12.62 22.25 C 12.34 22.25 12 22.5 12 22.25 L 12 16.35 C 12 15.797716 12.447715 15.35 13 15.35 L 18.48 15.35 L 18.48 10.189999 C 18.48 9.91 18.700001 9.950001 18.98 9.950001 C 19.26 9.950001 19.48 9.950001 19.48 10.189999 L 19.48 15.34 C 19.48 15.892284 19.032286 16.34 18.48 16.34 L 13 16.34 L 13 22.209999 C 13 22.5 12.89 22.25 12.62 22.25 Z"/>
        <path id="path5" fill="#fff" stroke="none" d="M 9.67 10.950001 C 9.39 10.950001 9.17 11.130001 9.17 10.85 L 9.17 5.75 L 2.5 5.75 C 2.22 5.75 2.24 5.530001 2.24 5.25 C 2.24 4.969999 2.24 4.75 2.5 4.75 L 9.16 4.75 C 9.712285 4.75 10.16 5.197716 10.16 5.75 L 10.16 10.85 C 10.17 11.130001 9.94 10.950001 9.67 10.950001 Z"/>
        <path id="path6" fill="#fff" stroke="none" d="M 9.67 14.290001 C 8.565431 14.290001 7.67 13.394569 7.67 12.290001 C 7.67 11.185431 8.565431 10.290001 9.67 10.290001 C 10.77457 10.290001 11.67 11.185431 11.67 12.290001 C 11.67 13.394569 10.77457 14.290001 9.67 14.290001 Z M 9.67 11.35 C 9.117715 11.35 8.67 11.797714 8.67 12.35 C 8.67 12.902285 9.117715 13.35 9.67 13.35 C 10.222284 13.35 10.67 12.902285 10.67 12.35 C 10.67 11.797714 10.222284 11.35 9.67 11.35 Z"/>
        <path id="path7" fill="#fff" stroke="none" d="M 6 10.689999 C 5.185694 10.689632 4.452913 10.195601 4.147199 9.440861 C 3.841484 8.686119 4.023882 7.821384 4.608384 7.254417 C 5.192887 6.68745 6.062775 6.531467 6.807857 6.860022 C 7.552938 7.188576 8.024429 7.93606 8 8.75 C 7.967554 9.83107 7.081556 10.690487 6 10.689999 Z M 6 7.75 C 5.447715 7.75 5 8.197716 5 8.75 C 5 9.302284 5.447715 9.75 6 9.75 C 6.552285 9.75 7 9.302284 7 8.75 C 7 8.197716 6.552285 7.75 6 7.75 Z"/>
        <path id="path8" fill="#fff" stroke="none" d="M 8.69 22.309999 C 8.41 22.309999 8.31 22.5 8.31 22.219999 L 8.31 16.35 L 6.49 16.35 C 5.937715 16.35 5.49 15.902285 5.49 15.35 L 5.49 10.189999 C 5.49 9.91 5.71 9.959999 5.99 9.959999 C 6.27 9.959999 6.49 9.91 6.49 10.189999 L 6.49 15.34 L 8.3 15.34 C 8.852284 15.34 9.3 15.787716 9.3 16.34 L 9.3 22.209999 C 9.31 22.5 9 22.309999 8.69 22.309999 Z"/>
        <path id="path9" fill="#fff" stroke="none" d="M 21.469999 22.75 L 15.35 22.75 C 14.797715 22.75 14.35 22.302284 14.35 21.75 L 14.35 18.92 C 14.35 18.367716 14.797715 17.92 15.35 17.92 L 22 17.92 C 22.552284 17.92 23 18.367716 23 18.92 L 23 21.190001 C 23.005335 21.600161 22.846817 21.995499 22.559595 22.288353 C 22.272373 22.581207 21.880186 22.747372 21.469999 22.75 Z M 15.35 18.940001 L 15.35 21.75 L 21.48 21.75 C 21.772711 21.75 22.01 21.512711 22.01 21.219999 L 22.01 18.92 L 15.35 18.92 Z"/>
        <path id="path10" fill="#fff" stroke="none" d="M 5.47 22.75 L 3.53 22.75 C 3.119814 22.747372 2.727627 22.581207 2.440405 22.288353 C 2.153183 21.995499 1.994664 21.600161 2 21.190001 L 2 18.92 C 2 18.367716 2.447715 17.92 3 17.92 L 5.47 17.92 C 6.022285 17.92 6.47 18.367716 6.47 18.92 L 6.47 21.75 C 6.47 22.302284 6.022285 22.75 5.47 22.75 Z M 3 18.91 L 3 21.190001 C 3 21.482712 3.237289 21.719999 3.53 21.719999 L 5.47 21.719999 L 5.47 18.92 L 3 18.92 Z"/>
    </g>
</svg>
